<svg width="64" height="76" viewBox="0 0 64 76" fill="none" xmlns="http://www.w3.org/2000/svg">
<path d="M39.5068 52.3548H23.6985C10.7122 52.3548 0.126465 62.9405 0.126465 75.9268H63.1554C63.0788 63.0043 52.4931 52.3548 39.5068 52.3548Z" fill="#0098D8"/>
<path d="M34.4246 41.5648C35.6632 41.5648 36.8252 41.9734 37.7191 42.7268H43.4269C46.2489 39.7771 47.96 35.857 47.96 31.4516C47.96 22.3854 40.6049 15.0942 31.6026 15.0942C22.6003 15.0942 15.2452 22.3854 15.2452 31.4516C15.2452 37.568 18.6163 42.9311 23.6346 45.7403C24.1837 43.3397 26.3162 41.552 28.7934 41.552L34.4246 41.5648Z" fill="#0098D8"/>
<path d="M28.7934 49.0603H34.4246C35.2546 49.0603 36.008 48.5751 36.4166 47.8983H49.1986H49.6839C50.1691 47.8983 50.5777 47.7579 50.9863 47.6174C51.5354 47.4131 51.944 47.1322 52.3654 46.7235C52.7102 46.3149 52.9783 45.8297 53.1954 45.2168C53.3359 44.6677 53.4763 43.9782 53.4763 43.2248V37.7212V37.5169C53.5402 37.4531 53.6168 37.3765 53.6806 37.3126C54.8426 36.1506 55.6726 34.5672 55.8769 32.8434C55.9408 32.7795 56.0174 32.7795 56.0174 32.7029C56.2217 32.4986 56.3622 32.1539 56.3622 31.8729V26.1651C56.3622 24.7222 56.2217 23.2792 56.0174 21.9002C55.6088 20.4572 55.264 19.0782 54.7788 17.7119C54.2936 16.3328 53.6806 15.0303 52.9272 13.7917C52.2377 12.5531 51.4205 11.3911 50.45 10.2929C50.3862 10.1525 50.2457 10.0886 50.1052 10.012C50.2457 9.39909 50.0414 8.63293 49.5562 8.16047C44.6017 3.21878 38.1405 0.741547 31.6026 0.741547C25.0648 0.741547 18.6163 3.21878 13.598 8.16047C13.1128 8.6457 12.9085 9.39909 13.049 10.012C12.9085 10.0759 12.8446 10.1525 12.7042 10.2929C11.7465 11.3911 10.9165 12.5659 10.227 13.7917C9.53742 15.0303 8.92449 16.3328 8.37542 17.7119C7.89019 19.0909 7.48157 20.4572 7.27726 21.9002C6.99634 23.2792 6.9325 24.7222 6.9325 26.1651V31.8729C6.9325 32.2177 7.07296 32.4859 7.27726 32.7029C7.34111 32.7668 7.41773 32.7668 7.41773 32.8434C7.62203 34.5672 8.45203 36.1379 9.61403 37.3126C10.5079 38.2065 11.6699 38.896 12.9851 39.3046C12.9213 39.0237 12.9213 38.7556 12.9213 38.5512V25.2074C12.9213 24.9265 12.9213 24.6583 12.9851 24.3774C11.6826 24.7222 10.5845 25.4117 9.61403 26.3694C9.55019 26.4332 9.40973 26.5737 9.33311 26.6503V26.1012C9.33311 24.7988 9.47357 23.4835 9.67788 22.2577C9.88219 20.9552 10.227 19.7166 10.7122 18.5419C11.1208 17.3032 11.6699 16.1412 12.3594 15.0431C12.9723 13.9449 13.7385 12.8468 14.5557 11.8763C14.6196 11.8125 14.6962 11.672 14.6962 11.5954C15.3091 11.6592 15.9348 11.4549 16.3434 11.0463C20.5317 6.85801 26.0353 4.78939 31.4622 4.78939C36.8891 4.78939 42.4565 6.84524 46.5809 11.0463C47.0662 11.5315 47.6791 11.6592 48.2282 11.5954C48.292 11.6592 48.292 11.7997 48.3686 11.8763C49.1986 12.834 49.952 13.9322 50.5649 15.0431C51.1779 16.1412 51.7269 17.316 52.2122 18.5419C52.6208 19.7805 52.9656 21.0191 53.2465 22.3215C53.4508 23.5602 53.5913 24.8626 53.5913 26.1651V26.7142C53.5274 26.5737 53.3869 26.5099 53.3103 26.4332C52.4165 25.5394 51.2545 24.8499 49.9393 24.4412C50.0031 24.7222 50.0031 24.9903 50.0031 25.2712V38.5385C50.0031 38.8194 50.0031 39.0875 49.9393 39.2919C50.284 39.228 50.6288 39.0876 50.9736 38.9471V43.2759C50.9736 43.7611 50.9097 44.2335 50.8331 44.5783C50.7692 44.9231 50.6288 45.1274 50.4883 45.3317C50.3479 45.4722 50.1436 45.6126 49.9393 45.6765C49.6583 45.7403 49.3902 45.8169 49.0454 45.8169H48.9816H36.34C35.9314 45.1274 35.2419 44.6549 34.348 44.6549H28.7168C27.4782 44.6549 26.5205 45.6892 26.5205 46.8512C26.5843 48.0899 27.5548 49.0603 28.7934 49.0603Z" fill="black"/>
</svg>
