<svg width="78" height="77" viewBox="0 0 78 77" fill="none" xmlns="http://www.w3.org/2000/svg">
<g clip-path="url(#clip0_63_96)">
<path d="M39.1794 0.792633C18.4294 0.792633 1.62509 17.6097 1.62509 38.3469C1.62509 59.0842 18.4422 75.9012 39.1794 75.9012C59.9166 75.9012 76.7337 59.0842 76.7337 38.3469C76.7337 17.6097 59.9166 0.792633 39.1794 0.792633ZM19.336 57.5902C18.34 57.5902 17.5355 56.7857 17.5355 55.7897V20.9169C17.5355 19.9209 18.34 19.1165 19.336 19.1165H59.0228C60.0188 19.1165 60.8232 19.9209 60.8232 20.9169V40.2112H56.5838V23.292H21.7366V46.5831H23.7286L31.7732 34.0437L37.1491 42.4203L39.8178 46.5831H42.1291L38.2983 40.6199L40.7883 36.738L47.1091 46.5959H49.6629V55.3938H55.524V57.6029L19.336 57.5902ZM53.5192 31.1068C53.5192 33.1626 51.8465 34.8354 49.7906 34.8354C47.7348 34.8354 46.062 33.1626 46.062 31.1068C46.062 29.0509 47.7348 27.3782 49.7906 27.3782C51.8465 27.3654 53.5192 29.0382 53.5192 31.1068ZM62.2278 52.7889V58.65H58.1161V52.7889H52.2551V48.6772H58.1161V42.8162H62.2278V48.6772H68.0889V52.7889H62.2278Z" fill="#0098D8"/>
</g>
<defs>
<clipPath id="clip0_63_96">
<rect width="76.6154" height="76.6154" fill="white" transform="translate(0.846161 0.230774)"/>
</clipPath>
</defs>
</svg>
