<svg width="77" height="77" viewBox="0 0 77 77" fill="none" xmlns="http://www.w3.org/2000/svg">
<path d="M38.6923 0.230774C17.5387 0.230774 0.384613 17.3848 0.384613 38.5385C0.384613 59.6921 17.5387 76.8462 38.6923 76.8462C59.8459 76.8462 77 59.6921 77 38.5385C77 17.3848 59.8459 0.230774 38.6923 0.230774ZM23.4471 52.4461C21.9798 52.4461 20.7981 51.2644 20.7981 49.797C20.7981 48.3297 21.9798 47.148 23.4471 47.148C24.9145 47.148 26.0962 48.3297 26.0962 49.797C26.0962 51.2644 24.9145 52.4461 23.4471 52.4461ZM23.4471 41.1875C21.9798 41.1875 20.7981 40.0058 20.7981 38.5385C20.7981 37.0711 21.9798 35.8894 23.4471 35.8894C24.9145 35.8894 26.0962 37.0711 26.0962 38.5385C26.0962 40.0058 24.9145 41.1875 23.4471 41.1875ZM23.4471 29.916C21.9798 29.916 20.7981 28.7343 20.7981 27.2669C20.7981 25.7995 21.9798 24.6178 23.4471 24.6178C24.9145 24.6178 26.0962 25.7995 26.0962 27.2669C26.0962 28.7343 24.9145 29.916 23.4471 29.916ZM56.5865 52.2773H31.7839C30.3166 52.2773 29.1349 51.0956 29.1349 49.6282C29.1349 48.1608 30.3166 46.9791 31.7839 46.9791H56.5865C58.0539 46.9791 59.2356 48.1608 59.2356 49.6282C59.2226 51.0956 58.0409 52.2773 56.5865 52.2773ZM56.5865 41.1096H31.7839C30.3166 41.1096 29.1349 39.9279 29.1349 38.4606C29.1349 36.9932 30.3166 35.8115 31.7839 35.8115H56.5865C58.0539 35.8115 59.2356 36.9932 59.2356 38.4606C59.2226 39.9149 58.0409 41.1096 56.5865 41.1096ZM56.5865 29.929H31.7839C30.3166 29.929 29.1349 28.7473 29.1349 27.2799C29.1349 25.8125 30.3166 24.6308 31.7839 24.6308H56.5865C58.0539 24.6308 59.2356 25.8125 59.2356 27.2799C59.2226 28.7473 58.0409 29.929 56.5865 29.929Z" fill="#0098D8"/>
</svg>
