<svg width="78" height="77" viewBox="0 0 78 77" fill="none" xmlns="http://www.w3.org/2000/svg">
<g clip-path="url(#clip0_63_52)">
<path d="M61.3215 40.8625L61.7301 40.6326C68.6 36.8402 72.8138 29.6256 72.7117 21.7725C72.6351 16.0646 70.3494 10.7526 66.276 6.80694C62.1898 2.87402 56.8012 0.767093 51.0934 0.869247C46.8285 0.958631 42.6657 2.33771 39.2052 4.80217C35.732 2.33771 31.582 0.958631 27.3043 0.869247C21.5837 0.754324 16.1951 2.87402 12.1217 6.81971C8.0483 10.7654 5.76261 16.0774 5.68599 21.7853C5.58384 29.6256 9.79768 36.8529 16.6675 40.6454L17.0761 40.8753H61.3215V40.8625Z" fill="#0098D8"/>
<path d="M17.1017 45.2806V49.6988H32.5652V54.1169H20.7792V58.5351H32.5652V62.9533H24.4695V67.3714H53.9282V62.9533H45.8325V58.5351H57.6185V54.1169H45.8325V49.6988H61.296V45.2806H17.1017Z" fill="#D4D4D4"/>
<path d="M50.2378 71.7896H28.1471V76.2077H50.2378V71.7896Z" fill="#D4D4D4"/>
</g>
<defs>
<clipPath id="clip0_63_52">
<rect width="76.6154" height="76.6154" fill="white" transform="translate(0.923069 0.230774)"/>
</clipPath>
</defs>
</svg>
